<svg xmlns="http://www.w3.org/2000/svg" xmlns:xlink="http://www.w3.org/1999/xlink" width="24" height="24" preserveAspectRatio="xMidYMid meet" viewBox="0 0 24 24" style="-ms-transform: rotate(360deg); -webkit-transform: rotate(360deg); transform: rotate(360deg);"><path d="M12 2a10 10 0 0 1 10 10a2 2 0 0 1-2 2H4a2 2 0 0 1-2-2A10 10 0 0 1 12 2m0 6a2 2 0 0 0 2-2a2 2 0 0 0-2-2a2 2 0 0 0-2 2a2 2 0 0 0 2 2m5 4a2 2 0 0 0 2-2a2 2 0 0 0-2-2a2 2 0 0 0-2 2a2 2 0 0 0 2 2M7 12a2 2 0 0 0 2-2a2 2 0 0 0-2-2a2 2 0 0 0-2 2a2 2 0 0 0 2 2m8 3l1.27 4.45l.08.55c0 1.1-.9 2-2 2h-4.7a2 2 0 0 1-2-2l.08-.55L9 15h6z" fill="#626262"/><rect x="0" y="0" width="24" height="24" fill="rgba(0, 0, 0, 0)" /></svg>